<svg width="24" height="24" viewBox="0 0 24 24" fill="none" xmlns="http://www.w3.org/2000/svg">
<path d="M15.2863 4C13.1825 4 11.477 5.79086 11.477 8C11.477 8.33382 11.5159 8.65809 11.5893 8.96808C9.56635 8.96808 6.51939 8.55908 3.97468 6.00961C3.6363 5.67059 3.01233 5.89726 3.0358 6.37567C3.41293 14.0627 6.70501 16.3049 8.40034 16.4444C7.3056 17.5257 5.71534 18.3791 4.11513 18.7622C3.69281 18.8633 3.58848 19.3256 4.00144 19.4599C5.14647 19.8323 6.78541 19.9758 7.66759 20C13.9084 20 18.9809 14.7471 19.0938 8.22229C19.9131 7.68945 20.438 6.5325 20.7329 5.71291C20.8047 5.5133 20.4775 5.28073 20.2817 5.36226C19.6696 5.61708 18.8926 5.67749 18.2306 5.46181C17.532 4.56927 16.4725 4 15.2863 4Z" fill="white"/>
</svg>
