<svg width="36" height="36" viewBox="0 0 36 36" fill="none" xmlns="http://www.w3.org/2000/svg">
<path d="M30 10.5L18 16.5L6 10.5" stroke="#131118" stroke-width="2.25" stroke-linecap="round" stroke-linejoin="round"/>
<path d="M27.9368 7.00142L20.4368 3.5374C18.8854 2.82086 17.1146 2.82087 15.5632 3.53741L8.06317 7.00143C5.8964 8.00219 4.5 10.2352 4.5 12.6993V23.3007C4.5 25.7648 5.8964 27.9978 8.06317 28.9986L15.5632 32.4626C17.1146 33.1791 18.8854 33.1791 20.4368 32.4626L27.9368 28.9986C30.1036 27.9978 31.5 25.7648 31.5 23.3007V12.6993C31.5 10.2352 30.1036 8.00219 27.9368 7.00142Z" stroke="#131118" stroke-width="2.25" stroke-linecap="round" stroke-linejoin="round"/>
<path d="M12 6L25.5 13.5V29.25" stroke="#131118" stroke-width="2.25" stroke-linecap="round" stroke-linejoin="round"/>
<path d="M18 16.5V33" stroke="#131118" stroke-width="2.25" stroke-linecap="round" stroke-linejoin="round"/>
</svg>
