<svg width="100" height="100" viewBox="0 0 100 100" fill="none" xmlns="http://www.w3.org/2000/svg">
<g clip-path="url(#clip0_203_2985)">
<path d="M50 0C22.4289 0 0 22.4289 0 50C0 77.5711 22.4289 100 50 100C77.5711 100 100 77.5711 100 50C100 22.4289 77.5711 0 50 0Z" fill="#02BC7D"/>
<path d="M75.3402 39.4042L48.2566 66.487C47.4441 67.2995 46.3775 67.7085 45.3109 67.7085C44.2443 67.7085 43.1777 67.2995 42.3652 66.487L28.8238 52.9456C27.1942 51.3167 27.1942 48.683 28.8238 47.0542C30.4527 45.4245 33.0856 45.4245 34.7152 47.0542L45.3109 57.6499L69.4488 33.5128C71.0777 31.8831 73.7106 31.8831 75.3402 33.5128C76.9691 35.1416 76.9691 37.7745 75.3402 39.4042Z" fill="#FAFAFA"/>
</g>
<defs>
<clipPath id="clip0_203_2985">
<rect width="100" height="100" fill="white"/>
</clipPath>
</defs>
</svg>
