<svg width="37" height="36" viewBox="0 0 37 36" fill="none" xmlns="http://www.w3.org/2000/svg">
<path d="M31.832 24V27C31.832 29.4853 29.8173 31.5 27.332 31.5C24.8468 31.5 22.832 29.4853 22.832 27V24C22.832 21.5147 24.8468 19.5 27.332 19.5C29.8173 19.5 31.832 21.5147 31.832 24ZM31.832 24V18C31.832 10.5442 25.7879 4.5 18.332 4.5C10.8762 4.5 4.83203 10.5442 4.83203 18V24M4.83203 24V27C4.83203 29.4853 6.84675 31.5 9.33203 31.5C11.8173 31.5 13.832 29.4853 13.832 27V24C13.832 21.5147 11.8173 19.5 9.33203 19.5C6.84675 19.5 4.83203 21.5147 4.83203 24Z" stroke="#131118" stroke-width="2.25" stroke-linecap="square" stroke-linejoin="round"/>
</svg>
